# xmcd CD database file
#
# Track frame offsets:
#	182
#	18682
#	40245
#	51020
#	71605
#	93555
#	122255
#	139490
#	158020
#	187590
#	202192
#	223885
#	236402
#
# Disc length: 3375 seconds
#
# Revision: 0
# Processed by: cddbd v1.4PL0 Copyright (c) Steve Scherf et al.
# Submitted via: Feurio! 1.65 - http://www.feurio.com
#
DISCID=b80d2d0d
DTITLE=Groundhogs - Scratching The Surface
DYEAR=1900
DGENRE=Blues
TTITLE0=Rocking Chair
TTITLE1=Early In The Morning
TTITLE2=Waking Blues
TTITLE3=Married Man
TTITLE4=No More Doggin'
TTITLE5=Man Trouble
TTITLE6=Come Back Baby
TTITLE7=You Don't Love Me
TTITLE8=Still A Fool
TTITLE9=Oh death
TTITLE10=Gasoline
TTITLE11=Rock Me
TTITLE12=Don't Pass The Hat Around
EXTD=ARD BGO Records BGOCD 15
EXTT0=
EXTT1=
EXTT2=
EXTT3=
EXTT4=
EXTT5=
EXTT6=
EXTT7=
EXTT8=
EXTT9=
EXTT10=
EXTT11=
EXTT12=
PLAYORDER=
